<svg width="55" height="45" viewBox="0 0 55 45" fill="none" xmlns="http://www.w3.org/2000/svg">
<path d="M11.922 0C18.5188 0 23.8439 4.87864 23.8439 10.9223C23.8439 16.966 18.5188 21.8447 11.922 21.8447C5.32514 21.8447 0 16.966 0 10.9223C0 4.87864 5.32514 0 11.922 0Z" fill="#D5FFA2"/>
<path d="M55.0005 25.9225C55.0005 20.607 51.0265 16.1653 45.7014 14.8546C45.2245 8.374 39.2635 3.2041 32.0308 3.2041C25.7519 3.2041 20.3473 7.06332 18.8372 12.5245H11.2071C9.45858 12.5245 8.10742 13.8352 8.10742 15.3643V32.6944C8.10742 34.2963 9.53806 35.5342 11.2071 35.5342H23.606C23.606 35.6798 23.606 35.7526 23.606 35.8983C23.606 40.9225 28.0568 45.0002 33.5409 45.0002C38.4687 45.0002 42.6016 41.6507 43.3964 37.2818C49.9138 36.9177 55.0005 31.9662 55.0005 25.9225ZM32.0308 5.38857C37.8329 5.38857 42.6016 9.39342 43.2375 14.4905C43.158 14.4905 42.999 14.4905 42.9196 14.4905C42.7606 14.4905 42.6016 14.4905 42.4427 14.4905C42.2837 14.4905 42.1248 14.4905 41.9658 14.4905C41.8863 14.4905 41.8068 14.4905 41.7274 14.4905C41.33 14.4905 40.8531 14.5633 40.4557 14.6361H40.3762C39.9788 14.709 39.5814 14.7818 39.184 14.8546H39.1045C38.7071 15.0002 38.2303 15.073 37.8329 15.2187C37.4355 15.3643 37.0381 15.5827 36.6407 15.7284C36.2433 15.9468 35.8459 16.1653 35.5279 16.3837C35.4485 16.3837 35.4485 16.4565 35.369 16.4565C35.0511 16.675 34.7331 16.8934 34.4152 17.1119L34.3357 17.1847C34.0178 17.4031 33.7794 17.6944 33.4615 17.9857L33.382 18.0585V15.2915C33.382 13.6895 31.9514 12.4517 30.2823 12.4517H21.3011C22.8112 8.30119 27.1031 5.38857 32.0308 5.38857ZM10.4918 32.6944V15.3643C10.4918 15.0002 10.8097 14.709 11.2071 14.709H19.7115H30.0438C30.4412 14.709 30.7592 15.0002 30.7592 15.3643V21.8449V28.0342V32.6944C30.7592 33.0585 30.4412 33.3497 30.0438 33.3497H24.8777H11.2071C10.8097 33.3497 10.4918 33.0585 10.4918 32.6944ZM33.6204 42.8158C29.408 42.8158 26.0699 39.6847 26.0699 35.8983C26.0699 35.7526 26.0699 35.6798 26.0699 35.5342H30.2028C31.9514 35.5342 33.3025 34.2235 33.3025 32.6944V28.9808C33.382 28.9808 33.382 28.9808 33.4615 28.9808C33.6204 28.9808 33.7794 28.9808 33.9383 28.9808C34.0178 28.9808 34.1768 28.9808 34.2563 28.9808C34.4152 28.9808 34.5742 28.9808 34.7331 29.0536C34.8126 29.0536 34.8921 29.0536 34.9716 29.0536C35.1305 29.0536 35.369 29.1264 35.5279 29.1992C35.6074 29.1992 35.6074 29.1992 35.6869 29.1992C38.3892 29.9274 40.4557 31.8934 41.0915 34.442C41.171 34.6604 41.171 34.8789 41.171 35.0973V35.1701C41.171 35.3886 41.2505 35.6798 41.2505 35.8983C41.171 39.7575 37.7534 42.8158 33.6204 42.8158ZM43.5554 35.1701V35.0973C43.5554 34.9517 43.5554 34.8789 43.4759 34.7332C43.4759 34.5876 43.3964 34.3691 43.3964 34.2235C43.3964 34.0779 43.317 34.0051 43.317 33.8594C43.2375 33.7138 43.2375 33.4954 43.158 33.3497C43.158 33.2041 43.0785 33.1313 42.999 32.9857C42.9196 32.84 42.9196 32.6944 42.8401 32.5488C42.7606 32.4031 42.7606 32.3303 42.6811 32.1847C42.6016 32.0391 42.5222 31.8934 42.4427 31.7478C42.3632 31.6022 42.2837 31.5293 42.2042 31.3837C42.1248 31.2381 42.0453 31.0924 41.9658 30.9468C41.8863 30.874 41.8068 30.7284 41.7274 30.6556C41.6479 30.5099 41.4889 30.3643 41.4094 30.2915C41.33 30.2187 41.2505 30.073 41.171 30.0002C41.0915 29.8546 40.9326 29.7818 40.8531 29.6361C40.7736 29.5633 40.6941 29.4905 40.5352 29.3449C40.3762 29.1992 40.2967 29.1264 40.1378 29.0536C40.0583 28.9808 39.8993 28.908 39.8199 28.8352C39.6609 28.7624 39.5019 28.6167 39.4225 28.5439C39.343 28.4711 39.184 28.3983 39.1045 28.3255C38.9456 28.2526 38.7866 28.1798 38.6277 28.107C38.5482 28.0342 38.3892 27.9614 38.3097 27.8886C38.1508 27.8158 37.9918 27.7429 37.8329 27.6701C37.6739 27.5973 37.5944 27.5973 37.4355 27.5245C37.2765 27.4517 37.1175 27.3789 36.8791 27.3789C36.7201 27.306 36.6407 27.306 36.4817 27.2332C36.3227 27.1604 36.0843 27.1604 35.9253 27.0876C35.7664 27.0876 35.6869 27.0148 35.5279 27.0148C35.2895 26.942 35.1305 26.942 34.8921 26.942C34.8126 26.942 34.6537 26.942 34.5742 26.8692C34.2563 26.8692 33.9383 26.7963 33.6204 26.7963C33.5409 26.7963 33.382 26.7963 33.3025 26.7963V22.0633C33.382 21.9905 33.382 21.9177 33.4615 21.8449C33.5409 21.7721 33.5409 21.6264 33.6204 21.5536C33.6999 21.408 33.7794 21.3352 33.8589 21.2624C33.9383 21.1895 33.9383 21.1167 34.0178 20.9711C34.0973 20.8983 34.1768 20.7526 34.2563 20.6798C34.3357 20.607 34.4152 20.5342 34.4152 20.4614C34.4947 20.3886 34.5742 20.2429 34.6537 20.1701C34.7331 20.0973 34.8126 20.0245 34.8921 19.9517C34.9716 19.8789 35.0511 19.806 35.1305 19.6604C35.21 19.5876 35.2895 19.5148 35.369 19.442C35.4485 19.3691 35.5279 19.2963 35.6869 19.2235C35.7664 19.1507 35.8459 19.0779 35.9253 19.0051C36.0048 18.9323 36.1638 18.8594 36.2433 18.7866C36.3227 18.7138 36.4022 18.641 36.4817 18.5682C36.5612 18.4954 36.7201 18.4225 36.7996 18.3497C36.8791 18.2769 36.9586 18.2041 37.0381 18.2041C37.1175 18.1313 37.2765 18.0585 37.356 17.9857C37.4355 17.9128 37.5149 17.9128 37.6739 17.84C37.7534 17.7672 37.9123 17.6944 37.9918 17.6944C38.0713 17.6216 38.1508 17.6216 38.3097 17.5488C38.4687 17.4759 38.5482 17.4759 38.7071 17.4031C38.7866 17.3303 38.8661 17.3303 39.0251 17.2575C39.184 17.1847 39.2635 17.1847 39.4225 17.1119C39.5019 17.1119 39.6609 17.0391 39.7404 17.0391C39.8993 16.9662 39.9788 16.9662 40.1378 16.9662C40.2173 16.9662 40.2967 16.8934 40.4557 16.8934C40.6147 16.8934 40.7736 16.8206 40.9326 16.8206C41.0121 16.8206 41.0915 16.8206 41.2505 16.7478C41.4095 16.7478 41.5684 16.7478 41.7274 16.675C41.8068 16.675 41.8863 16.675 41.9658 16.675C42.2042 16.675 42.4427 16.675 42.6811 16.675C42.999 16.675 43.317 16.675 43.6349 16.7478C43.7144 16.7478 43.8733 16.7478 43.9528 16.8206C48.8805 17.4031 52.7751 21.3352 52.7751 25.9954C52.6161 30.7284 48.6421 34.6604 43.5554 35.1701Z" fill="#333333"/>
<path d="M20.665 22.8638C19.5522 22.8638 18.678 22.0628 18.678 21.0434C18.678 20.024 19.5522 19.223 20.665 19.223C21.7777 19.223 22.6519 20.024 22.6519 21.0434C22.6519 21.626 23.2083 22.1357 23.8441 22.1357C24.48 22.1357 25.0363 21.626 25.0363 21.0434C25.0363 18.859 23.0493 17.0386 20.665 17.0386C18.2806 17.0386 16.373 18.859 16.373 21.0434C16.373 23.2279 18.36 25.0483 20.7444 25.0483C21.8572 25.0483 22.7314 25.8493 22.7314 26.8687C22.7314 27.8881 21.8572 28.6891 20.7444 28.6891C19.6317 28.6891 18.7574 27.8153 18.7574 26.8687C18.7574 26.2861 18.2011 25.7764 17.5652 25.7764C16.9294 25.7764 16.373 26.2133 16.373 26.8687C16.373 29.0531 18.36 30.8735 20.7444 30.8735C23.1288 30.8735 25.1158 29.0531 25.1158 26.8687C25.1158 24.6842 23.0493 22.8638 20.665 22.8638Z" fill="#333333"/>
</svg>
