<svg width="70" height="70" viewBox="0 0 70 70" fill="none" xmlns="http://www.w3.org/2000/svg">
<path d="M52.6752 3.15137H26.6752C23.5752 3.15137 21.0752 5.65137 21.0752 8.65137V26.9514C21.0752 29.9514 23.5752 32.4514 26.6752 32.4514H52.7752C55.8752 32.4514 58.3752 29.9514 58.3752 26.9514V8.65137C58.2752 5.55137 55.7752 3.15137 52.6752 3.15137Z" fill="#D5FFA2"/>
<path d="M17.5085 20.8528C17.7112 21.0568 18.1166 21.2607 18.4207 21.2607H18.522C18.9274 21.2607 19.2315 21.0568 19.4342 20.7509L26.3263 10.7584C26.7317 10.1466 26.6304 9.43285 26.0222 9.02499C25.4141 8.61713 24.7046 8.71909 24.2992 9.33088L18.3193 17.9978L15.2787 14.837C14.7719 14.3271 13.9611 14.3271 13.4543 14.837C12.9475 15.3468 12.9475 16.1625 13.4543 16.6723L17.5085 20.8528Z" fill="black"/>
<path d="M12.3396 49.4031C13.0491 49.4031 13.5559 48.7913 13.5559 48.1796V34.9242H28.7591V52.1562C28.7591 52.8699 29.3672 53.3797 29.9753 53.3797C30.5834 53.3797 31.1916 52.7679 31.1916 52.1562V34.9242H34.4349L34.6376 47.2619C34.6376 47.9756 35.2457 48.4854 35.8539 48.4854C36.5633 48.4854 37.0701 47.8737 37.0701 47.1599V33.7006C37.0701 32.9869 36.462 32.4771 35.8539 32.4771H29.9753H12.3396C11.6302 32.4771 11.1234 33.0888 11.1234 33.7006V48.1796C11.022 48.7913 11.6302 49.4031 12.3396 49.4031Z" fill="black"/>
<path d="M39.6042 48.2816C38.9961 47.8738 38.1853 47.9757 37.5771 48.3836L36.0568 49.3013C34.6378 50.2189 33.4216 51.3405 32.3067 52.5641L31.0904 53.9916L29.3674 54.3995C28.962 52.87 27.6444 51.7484 26.0227 51.7484H23.0835C22.9821 51.7484 22.7794 51.6464 22.678 51.5445L22.5767 51.3405C21.6645 50.2189 20.3469 49.5052 18.8266 49.5052H13.9616C12.8467 49.5052 11.7318 49.913 10.9209 50.6268L5.54915 55.2152L5.4478 55.1132C4.53561 54.5014 3.42071 54.6034 2.60987 55.4191L0.380079 57.6623C-0.126693 58.1721 -0.126693 58.9879 0.380079 59.4977C0.886851 60.0075 1.69769 60.0075 2.20446 59.4977L4.23154 57.4584C7.57624 59.7016 10.4142 62.4546 12.644 65.7175L10.6169 67.7568C10.1101 68.2666 10.1101 69.0823 10.6169 69.5922C10.8196 69.7961 11.225 70 11.5291 70C11.8331 70 12.1372 69.898 12.4412 69.5922L14.671 67.3489C15.2792 66.7371 15.4819 65.8195 15.1778 65.0038H29.1647C29.4688 65.0038 29.6715 64.9018 29.9755 64.6979L33.523 61.9448C35.8541 60.1095 37.7798 57.9682 39.4015 55.5211L40.9218 53.0739C41.4286 52.2582 41.6313 51.3405 41.3272 50.4229C41.0232 49.5052 40.415 48.6895 39.6042 48.2816ZM38.692 51.7484L37.1717 54.1955C35.7527 56.4388 34.0297 58.3761 31.9013 60.0075L28.6579 62.4547H13.3534C11.7318 60.4154 9.80603 58.478 7.67759 56.8466L12.5426 52.6661C12.948 52.3602 13.4548 52.1563 13.9616 52.1563H18.8266C19.5361 52.1563 20.1442 52.4621 20.5496 52.972L20.6509 53.1759C21.1577 53.8897 22.0699 54.2975 22.9821 54.2975H25.9214C26.4281 54.2975 26.9349 54.7054 26.9349 55.2152C26.9349 55.725 26.5295 56.1329 25.9214 56.1329H17.813C17.1035 56.1329 16.5968 56.7447 16.5968 57.3564C16.5968 57.9682 17.2049 58.58 17.813 58.58H25.9214C27.239 58.58 28.2525 57.8663 28.8607 56.8466L31.9013 56.3368C32.2053 56.3368 32.4081 56.1329 32.6108 55.9289L34.1311 54.0936C35.0433 52.972 36.1582 52.0543 37.3744 51.2386L38.5907 50.4229C38.692 50.5248 38.7934 50.6268 38.7934 50.8307C38.8947 51.3405 38.8947 51.5445 38.692 51.7484Z" fill="black"/>
<path d="M69.5036 17.7943C68.8955 17.3864 68.186 17.4884 67.7806 18.1002C66.6657 19.6296 65.1454 20.8532 63.321 21.465C62.0034 21.8729 60.4831 22.4846 58.9628 22.9945C55.7195 24.1161 53.591 24.8298 53.1856 25.0337C52.6788 25.2377 51.9693 25.1357 51.7666 25.0337C51.7666 24.218 52.3748 22.7905 53.3883 21.8729C53.591 21.6689 54.4018 21.363 55.01 21.1591C56.5303 20.6493 58.3547 19.9355 59.5709 18.508C60.4831 17.4884 60.3818 15.653 60.2804 15.1432C60.2804 14.7354 59.9763 14.3275 59.6723 14.1236L55.9222 12.0843C55.8208 12.0843 55.7195 11.9823 55.7195 11.9823L54.6046 11.5745C54.3005 11.4725 54.0978 11.4725 53.7937 11.5745L50.449 12.798C49.6382 13.1039 48.9287 13.6137 48.3206 14.2255L45.8881 17.0805C45.584 17.3864 45.4827 17.8962 45.6854 18.3041C45.6854 18.3041 45.7867 18.712 45.9894 19.5277C44.9759 20.0375 44.1651 20.8532 43.4556 21.6689L41.7326 16.6727L46.4962 8.92339C47.2057 7.90375 48.3206 7.08803 49.5368 6.78214C56.1249 4.94678 65.3481 2.6016 65.4495 2.49964C66.159 2.29571 66.5644 1.68392 66.3617 0.970174C66.159 0.256424 65.4495 -0.151434 64.8413 0.052495C64.74 0.052495 55.5167 2.49964 48.9287 4.33499C47.1043 4.84482 45.584 5.96642 44.4691 7.49589L39.6041 15.3471C39.1987 15.9589 39.0973 16.7746 39.4014 17.4884L42.0366 25.1357C41.9353 25.5436 41.9353 25.8495 41.9353 26.2573C41.9353 30.5398 45.4827 34.0066 49.7395 34.0066C54.0978 34.0066 57.5438 30.5398 57.5438 26.2573C57.5438 26.1554 57.5438 26.1554 57.5438 26.0534C58.2533 25.8495 58.9628 25.5436 59.6723 25.3396C61.1926 24.8298 62.8143 24.32 64.0305 23.8102C66.3617 22.9945 68.2874 21.567 69.7064 19.5277C70.2131 19.0179 70.0104 18.2021 69.5036 17.7943ZM48.2192 18.2021L50.2463 15.857C50.5504 15.5511 50.8544 15.2452 51.2599 15.1432L54.3005 14.1236L54.8073 14.3275L57.7465 15.9589C57.7465 16.3668 57.6452 16.6727 57.5438 16.8766C56.8344 17.7943 55.314 18.3041 54.0978 18.8139C53.591 19.0179 53.1856 19.1198 52.7802 19.3237C51.7666 18.9159 50.7531 18.712 49.6382 18.712C49.1314 18.712 48.726 18.712 48.2192 18.8139C48.2192 18.508 48.2192 18.3041 48.2192 18.2021ZM49.7395 31.5595C46.8003 31.5595 44.4691 29.2143 44.4691 26.3593C44.4691 23.5043 46.9016 21.1591 49.7395 21.1591C50.0436 21.1591 50.3477 21.1591 50.6517 21.2611C49.7396 22.4846 49.2328 24.0141 49.2328 25.2377C49.2328 26.0534 49.6382 26.7671 50.3477 27.175C50.9558 27.5829 51.6653 27.6848 52.4761 27.6848C53.0842 27.6848 53.6924 27.5829 54.1991 27.3789C54.3005 27.3789 54.6046 27.175 55.01 27.073C54.6046 29.5202 52.3748 31.5595 49.7395 31.5595Z" fill="black"/>
</svg>
