<svg width="60" height="70" viewBox="0 0 60 70" fill="none" xmlns="http://www.w3.org/2000/svg">
<path d="M15 0C23.3019 0 30 6.69811 30 15C30 23.3019 23.3019 30 15 30C6.69811 30 0 23.3019 0 15C0 6.69811 6.69811 0 15 0Z" fill="#D5FFA2"/>
<path d="M22.4546 7.2209C21.9708 6.80566 21.1969 7.01328 20.9067 7.53233L13.1673 19.6781L9.0074 15.0066C8.62043 14.4876 7.84649 14.4876 7.36278 15.0066C6.87907 15.4219 6.87907 16.2524 7.36278 16.7714L12.4901 22.5848C12.6836 22.7924 12.9738 23 13.3608 23H13.4575C13.8445 23 14.1347 22.7924 14.3282 22.481L22.8415 8.98566C23.1317 8.3628 23.035 7.63614 22.4546 7.2209Z" fill="#06A5FF"/>
<path d="M57.8705 18.7283C56.1673 18.6185 54.4641 18.3989 52.761 18.0695C50.9576 17.85 49.2544 17.1912 47.6515 16.2031C45.5476 14.6661 43.644 12.7996 41.9408 10.8234C40.939 9.72553 39.4362 9.72553 38.4343 10.8234C36.7311 12.9094 34.7274 14.6661 32.6235 16.2031C31.0205 17.1912 29.3173 17.85 27.514 18.0695C25.8108 18.3989 24.1076 18.6185 22.3043 18.7283C21.0019 18.7283 20 19.936 20 21.3632V46.505C20.1002 49.5791 21.0019 52.5435 22.6048 54.9588C24.2078 57.484 26.2116 59.8994 28.4157 61.8756C31.7218 64.8399 35.2283 67.4748 38.9352 69.6706C39.6366 70.1098 40.438 70.1098 41.0392 69.6706C44.7461 67.4748 48.3528 64.8399 51.5587 61.8756C53.7628 59.8994 55.7666 57.5938 57.3696 54.9588C58.9725 52.4337 59.8742 49.4693 59.9744 46.505V21.3632C60.1748 19.936 59.1729 18.8381 57.8705 18.7283ZM57.8705 46.3952C57.7703 48.9204 56.9688 51.3358 55.6664 53.4218C54.1636 55.8371 52.3602 57.9231 50.2563 59.7896C47.1505 62.6441 43.7442 65.1693 40.2377 67.2553C36.631 65.1693 33.2246 62.6441 30.1188 59.7896C28.1151 57.9231 26.2116 55.8371 24.7088 53.4218C23.3062 51.3358 22.6048 48.9204 22.5047 46.2855V21.3632C24.308 21.2534 26.2116 21.0339 28.0149 20.7045C30.1188 20.3751 32.2228 19.6066 34.0261 18.5087C36.2302 16.8618 38.3341 14.8856 40.2377 12.6898H40.3379C42.1412 14.8856 44.2451 16.8618 46.4492 18.5087C48.3528 19.6066 50.3565 20.3751 52.4604 20.7045C54.2638 21.0339 56.0671 21.2534 57.8705 21.3632V46.3952Z" fill="black"/>
<path d="M47.7114 34.2655H46.8159C46.7164 33.4159 46.4179 32.6726 46.1194 31.9292C45.6219 30.8673 44.9254 29.9115 44.0299 29.2743C42.8358 28.4248 41.5423 28 40.0498 28V28.1062C38.6567 28.1062 37.2637 28.531 36.0697 29.3805C35.1741 30.0177 34.4776 30.9735 33.9801 32.0354C33.6816 32.7788 33.3831 33.6283 33.2836 34.3717H32.3881C31.0945 34.3717 30 35.5398 30 36.9204V49.4513C30 50.8319 31.0945 52 32.3881 52H47.6119C48.9055 52 50 50.8319 50 49.4513V36.708C50 35.3274 49.005 34.2655 47.7114 34.2655ZM36.1692 32.885C36.4677 32.2478 36.8657 31.6106 37.4627 31.1858C38.2587 30.6549 39.1542 30.4425 40.0498 30.4425V30.3363C40.9453 30.3363 41.8408 30.5487 42.6368 31.0796C43.2338 31.5044 43.6318 32.1416 43.9303 32.7788C44.1294 33.2035 44.2289 33.6283 44.3284 34.0531H35.7711C35.8706 33.7345 35.9701 33.3097 36.1692 32.885ZM47.7114 49.2389H32.4876V36.708H34.4776H45.8209H47.8109V49.2389H47.7114Z" fill="black"/>
</svg>
