<svg width="20" height="20" viewBox="0 0 20 20" fill="none" xmlns="http://www.w3.org/2000/svg">
<path d="M2.24707 12.8857L7.15607 17.8144L17.4769 7.44798L12.57 2.51904L2.24707 12.8857ZM13.734 6.2787C14.0749 6.62187 14.0749 7.17769 13.734 7.52031L7.75714 13.5215C7.58684 13.6936 7.3632 13.7787 7.14037 13.7787C6.91538 13.7787 6.69228 13.6936 6.52197 13.5215C6.18056 13.1783 6.18056 12.6227 6.52197 12.2801L12.498 6.2787C12.8389 5.9358 13.3926 5.9358 13.734 6.2787Z" fill="black"/>
<path d="M0 20L5.45376 18.5901L1.45962 14.5786L0 20Z" fill="black"/>
<path d="M19.4675 2.85642L17.1409 0.518938C16.451 -0.173387 15.2478 -0.172571 14.5606 0.518938L13.8047 1.27843L18.7131 6.20682L19.4675 5.44869C20.1776 4.73353 20.1776 3.5705 19.4675 2.85642Z" fill="black"/>
</svg>
