<svg width="20" height="20" viewBox="0 0 20 20" fill="none" xmlns="http://www.w3.org/2000/svg">
<path d="M2.24707 12.8858L7.15607 17.8145L17.4769 7.4481L12.57 2.51917L2.24707 12.8858ZM13.734 6.27882C14.0749 6.62199 14.0749 7.17781 13.734 7.52044L7.75714 13.5216C7.58684 13.6937 7.3632 13.7788 7.14037 13.7788C6.91538 13.7788 6.69228 13.6937 6.52197 13.5216C6.18055 13.1784 6.18055 12.6229 6.52197 12.2802L12.498 6.27882C12.8389 5.93592 13.3926 5.93592 13.734 6.27882Z" fill="black"/>
<path d="M0 20L5.45376 18.5901L1.45962 14.5786L0 20Z" fill="black"/>
<path d="M19.4675 2.85642L17.1409 0.518938C16.451 -0.173387 15.2478 -0.172571 14.5606 0.518938L13.8047 1.27843L18.7131 6.20682L19.4675 5.44869C20.1776 4.73353 20.1776 3.5705 19.4675 2.85642Z" fill="black"/>
</svg>
