<svg width="40" height="36" viewBox="0 0 40 36" fill="none" xmlns="http://www.w3.org/2000/svg">
<path d="M13.0821 34.2833C13.9634 34.2833 14.6779 33.5689 14.6779 32.6876C14.6779 31.8062 13.9634 31.0918 13.0821 31.0918C12.2008 31.0918 11.4863 31.8062 11.4863 32.6876C11.4863 33.5689 12.2008 34.2833 13.0821 34.2833Z" stroke="white" stroke-width="2" stroke-linecap="round" stroke-linejoin="round"/>
<path d="M34.0557 34.2833C34.9371 34.2833 35.6515 33.5689 35.6515 32.6876C35.6515 31.8062 34.9371 31.0918 34.0557 31.0918C33.1744 31.0918 32.46 31.8062 32.46 32.6876C32.46 33.5689 33.1744 34.2833 34.0557 34.2833Z" stroke="white" stroke-width="2" stroke-linecap="round" stroke-linejoin="round"/>
<path d="M1 1H7.02628L11.546 26.5324H35.6511" stroke="white" stroke-width="2" stroke-linecap="round" stroke-linejoin="round"/>
<path d="M11.3207 20.6054H34.9065C35.0815 20.6056 35.251 20.5454 35.3864 20.4351C35.5217 20.3249 35.6144 20.1714 35.6488 20.0008L38.372 6.4595C38.3939 6.35031 38.3913 6.23763 38.3641 6.12959C38.337 6.02155 38.2861 5.92085 38.2151 5.83476C38.1441 5.74866 38.0547 5.67931 37.9535 5.63173C37.8523 5.58414 37.7417 5.55949 37.6297 5.55957H8.29492" stroke="white" stroke-width="2" stroke-linecap="round" stroke-linejoin="round"/>
</svg>
