<svg width="24" height="18" viewBox="0 0 24 18" fill="none" xmlns="http://www.w3.org/2000/svg">
<path d="M0 3C0 2.20435 0.316071 1.44129 0.87868 0.87868C1.44129 0.31607 2.20435 0 3 0H21C21.7956 0 22.5587 0.31607 23.1213 0.87868C23.6839 1.44129 24 2.20435 24 3V15C24 15.7956 23.6839 16.5587 23.1213 17.1213C22.5587 17.6839 21.7956 18 21 18H3C2.20435 18 1.44129 17.6839 0.87868 17.1213C0.316071 16.5587 0 15.7956 0 15V3ZM3 1.5C2.60218 1.5 2.22064 1.65804 1.93934 1.93934C1.65804 2.22064 1.5 2.60218 1.5 3V3.3255L12 9.6255L22.5 3.3255V3C22.5 2.60218 22.342 2.22064 22.0607 1.93934C21.7794 1.65804 21.3978 1.5 21 1.5H3ZM22.5 5.0745L15.438 9.312L22.5 13.6575V5.0745ZM22.449 15.3885L13.989 10.182L12 11.3745L10.011 10.182L1.551 15.387C1.63624 15.7062 1.82447 15.9883 2.08648 16.1896C2.34849 16.3908 2.66962 16.5 3 16.5H21C21.3302 16.5 21.6512 16.3911 21.9131 16.1902C22.1751 15.9892 22.3635 15.7074 22.449 15.3885ZM1.5 13.6575L8.562 9.312L1.5 5.0745V13.6575Z" fill="black"/>
</svg>
