<svg width="50" height="60" viewBox="0 0 50 60" fill="none" xmlns="http://www.w3.org/2000/svg">
<path d="M12.3541 21.7019H1.07004C0.486382 21.7019 0 21.2109 0 20.6217C0 20.0325 0.486382 19.5415 1.07004 19.5415H12.3541C12.9377 19.5415 13.4241 20.0325 13.4241 20.6217C13.4241 21.2109 12.9377 21.7019 12.3541 21.7019Z" fill="#333333"/>
<path d="M21.2058 17.6759C21.5949 17.6759 21.984 17.7741 22.2758 17.8723C21.2058 15.1227 18.5793 13.0605 15.3692 13.0605C11.1863 13.0605 7.87891 16.3993 7.87891 20.6219C7.87891 24.8445 11.1863 28.1833 15.3692 28.1833C16.5365 28.1833 17.7038 27.8887 18.6766 27.3977V20.3273C18.5793 18.8543 19.7466 17.6759 21.2058 17.6759Z" fill="#D5FFA2"/>
<path d="M24.5136 8.64184H1.07004C0.486382 8.64184 0 8.15084 0 7.56164C0 6.97244 0.486382 6.48145 1.07004 6.48145H24.5136C25.0973 6.48145 25.5837 6.97244 25.5837 7.56164C25.5837 8.15084 25.0973 8.64184 24.5136 8.64184Z" fill="#333333"/>
<path d="M48.9303 8.64184H37.6462C37.0626 8.64184 36.5762 8.15084 36.5762 7.56164C36.5762 6.97244 37.0626 6.48145 37.6462 6.48145H48.9303C49.5139 6.48145 50.0003 6.97244 50.0003 7.56164C50.0003 8.15084 49.5139 8.64184 48.9303 8.64184Z" fill="#333333"/>
<path d="M31.8096 15.1227C35.9464 15.1227 39.2999 11.7374 39.2999 7.56138C39.2999 3.38534 35.9464 0 31.8096 0C27.6728 0 24.3193 3.38534 24.3193 7.56138C24.3193 11.7374 27.6728 15.1227 31.8096 15.1227Z" fill="#D5FFA2"/>
<path d="M32.6851 8.64184H31.1286C30.545 8.64184 30.0586 8.15084 30.0586 7.56164C30.0586 6.97244 30.545 6.48145 31.1286 6.48145H32.6851C33.2687 6.48145 33.7551 6.97244 33.7551 7.56164C33.7551 8.15084 33.2687 8.64184 32.6851 8.64184Z" fill="#333333"/>
<path d="M48.9296 19.5417H24.7078C24.3187 17.8723 22.8596 16.5957 21.2059 16.5957C19.2604 16.5957 17.6067 18.2651 17.6067 20.2291V37.3158C17.6067 37.7086 17.2176 38.1014 16.8285 38.1014C16.7312 38.1014 16.5366 38.1014 16.4393 37.8068C16.2448 37.414 16.0502 36.8248 15.8557 36.2356C15.6611 35.7446 15.4666 35.3518 15.3693 34.959C14.6884 32.8969 12.451 31.8167 10.3109 32.3077C10.2137 32.3077 10.1164 32.3077 10.0191 32.3077C8.65724 32.7005 7.97631 34.0752 8.36542 35.3518V35.45C9.43546 38.1996 10.2137 40.9492 10.7973 43.5024L11.8674 49.198C12.3537 51.0638 13.2292 52.635 14.4938 53.9116L15.7584 55.09V58.8216C15.7584 59.4108 16.2448 59.9018 16.8285 59.9018C17.4121 59.9018 17.8985 59.4108 17.8985 58.8216V54.599C17.8985 54.3044 17.8012 54.0098 17.6067 53.8134L16.0502 52.3404C15.0775 51.3584 14.3965 50.0818 14.0074 48.707L12.9374 43.1096C12.451 40.36 11.5755 37.6104 10.5055 34.7626C10.5055 34.6644 10.5055 34.468 10.7 34.468C10.7973 34.468 10.7973 34.468 10.8946 34.468C11.8674 34.1734 13.2292 34.5662 13.5211 35.7446C13.7156 36.2356 13.9102 36.6284 14.0074 37.1194C14.202 37.7086 14.4938 38.396 14.6884 38.7888C14.6884 38.7888 14.6884 38.887 14.7857 38.887C15.4666 40.0654 16.4393 40.2618 17.1203 40.2618C18.6767 40.2618 20.0386 38.887 20.0386 37.3158V20.3273C20.0386 19.5417 20.7195 18.8543 21.4977 18.8543C22.2759 18.8543 22.9569 19.5417 22.9569 20.3273V31.0311V32.0131V35.7446C22.9569 36.3338 23.4432 36.8248 24.0269 36.8248C24.6106 36.8248 25.0969 36.3338 25.0969 35.7446V32.0131V31.0311C25.0969 30.5401 25.486 30.1473 25.9724 30.1473H27.4316C27.8207 30.1473 28.1125 30.4419 28.1125 30.8347V32.7987C28.0152 32.995 28.0152 33.2896 28.0152 33.5842V38.1014C28.0152 38.6906 28.5016 39.1816 29.0853 39.1816C29.6689 39.1816 30.1553 38.6906 30.1553 38.1014V36.3338C29.8635 36.0392 29.8635 35.941 29.8635 35.7446V33.0932C29.9608 32.8968 30.1553 32.7987 30.3499 32.7987H32.0036C32.3927 32.7987 32.6845 33.0933 32.6845 33.486V36.6284V40.36V41.342C32.6845 41.9312 33.1709 42.4222 33.7545 42.4222C34.3382 42.4222 34.8246 41.9312 34.8246 41.342V40.36V36.6284C34.8246 36.1374 35.2137 35.7446 35.7001 35.7446H37.1592C37.5483 35.7446 37.8401 36.0392 37.8401 36.432V47.1358C37.8401 49.3944 37.0619 51.653 35.6028 53.3224L35.0191 53.9116C34.1436 54.8936 33.6572 56.1702 33.6572 57.4468V58.9198C33.6572 59.509 34.1436 60 34.7273 60C35.3109 60 35.7973 59.509 35.7973 58.9198V57.4468C35.7973 56.4648 36.2837 55.7774 36.5755 55.3846L37.1592 54.7954C39.0074 52.635 39.9802 49.8854 39.9802 47.1358V36.432C39.9802 34.8608 38.8129 33.6824 37.2565 33.6824H35.7001C35.4082 33.6824 35.1164 33.7806 34.8246 33.7806V33.486C34.8246 31.9149 33.6572 30.7365 32.1008 30.7365H30.4471C30.2526 30.7365 30.058 30.7365 29.8635 30.8347C29.8635 29.2635 28.5989 28.0851 27.1397 28.0851H25.6806C25.3888 28.0851 25.0969 28.1833 24.8051 28.1833V21.7021H48.9296C49.5133 21.7021 49.9997 21.2111 49.9997 20.6219C49.9997 20.0327 49.5133 19.5417 48.9296 19.5417Z" fill="#333333"/>
</svg>
