<svg width="70" height="60" viewBox="0 0 70 60" fill="none" xmlns="http://www.w3.org/2000/svg">
<path d="M69.83 33.5294L62.4626 22.8235C62.2359 22.4706 61.8959 22.2353 61.4425 22.2353H57.0221V1.29412C57.0221 0.588236 56.4554 0 55.7754 0H14.2915C13.6115 0 13.0448 0.588236 13.0448 1.29412V22.1176H8.62435C8.17097 22.1176 7.83094 22.3529 7.60425 22.7059L0.236907 33.4118C0.010219 33.7647 -0.103123 34.3529 0.123565 34.7059C0.350252 35.1765 0.803627 35.4118 1.257 35.4118H7.37757V58.7059C7.37757 59.4118 7.94428 60 8.62435 60H43.8743H61.3292C62.0093 60 62.576 59.4118 62.576 58.7059V35.5294H68.6965C69.1499 35.5294 69.6033 35.2941 69.83 34.8235C70.0567 34.4706 70.0567 33.8824 69.83 33.5294ZM15.5383 2.58824H54.5286V22.1176H43.8743H15.5383V2.58824ZM9.30441 24.8235H14.2915H41.494L35.8269 32.9412H3.75056L9.30441 24.8235ZM9.98447 35.5294H36.5069C36.9603 35.5294 37.3003 35.2941 37.527 34.9412L42.7408 27.4118V57.5294H9.98447V35.5294ZM60.0824 57.6471H45.121V27.5294L50.2215 34.9412C50.4482 35.2941 50.7882 35.5294 51.2416 35.5294H60.0824V57.6471ZM51.9217 32.9412L46.3678 24.8235H55.7754H60.7625L66.3163 32.9412H51.9217Z" fill="black"/>
<path d="M22.5656 48.353H16.3317C15.6517 48.353 15.085 48.9413 15.085 49.6471C15.085 50.353 15.6517 50.9413 16.3317 50.9413H22.5656C23.2457 50.9413 23.8124 50.353 23.8124 49.6471C23.8124 48.9413 23.2457 48.353 22.5656 48.353Z" fill="black"/>
<path d="M19.3913 5.88184C18.7113 5.88184 18.1445 6.47007 18.1445 7.17595C18.1445 7.88184 18.7113 8.47007 19.3913 8.47007C20.0714 8.47007 20.6381 7.88184 20.6381 7.17595C20.6381 6.47007 20.0714 5.88184 19.3913 5.88184Z" fill="black"/>
<path d="M29.3659 5.88184C28.6859 5.88184 28.1191 6.47007 28.1191 7.17595C28.1191 7.88184 28.6859 8.47007 29.3659 8.47007C30.046 8.47007 30.6127 7.88184 30.6127 7.17595C30.6127 6.47007 30.046 5.88184 29.3659 5.88184Z" fill="black"/>
<path d="M24.3786 5.88184C23.6986 5.88184 23.1318 6.47007 23.1318 7.17595C23.1318 7.88184 23.6986 8.47007 24.3786 8.47007C25.0587 8.47007 25.6254 7.88184 25.6254 7.17595C25.6254 6.47007 25.0587 5.88184 24.3786 5.88184Z" fill="black"/>
</svg>
