<svg width="70" height="70" viewBox="0 0 70 70" fill="none" xmlns="http://www.w3.org/2000/svg">
<path d="M69.901 67.8211V67.7221L69.604 59.6008C69.604 58.7094 68.8119 58.0162 67.9208 58.0162C67.5247 58.0162 67.0297 58.2142 66.7327 58.5114C66.4356 58.8085 66.2376 59.3037 66.3366 59.6998L66.5347 64.0576L57.2277 54.7478C67.3267 43.4573 67.3267 26.4224 57.2277 15.1318L66.5347 5.82203L66.3366 10.1798C66.3366 10.576 66.4356 11.0712 66.7327 11.3683C67.0297 11.6654 67.5247 11.8635 67.9208 11.8635C68.8119 11.8635 69.505 11.1702 69.604 10.2788L69.901 2.15755V2.05851C69.901 1.95947 70 1.76139 70 1.66235C70 1.26619 69.802 0.770988 69.505 0.473868C69.1089 0.0777075 68.5148 -0.120372 67.9208 0.0777079C67.8218 0.0777079 67.8218 0.0777079 67.7228 0.0777079L59.703 0.275788C58.8119 0.275788 58.1188 1.06811 58.1188 1.95947C58.1188 2.85083 58.9109 3.54411 59.802 3.54411L64.1584 3.34603L54.8515 12.7548C43.5644 2.65275 26.5347 2.65275 15.2475 12.7548L5.94059 3.44507L10.297 3.64315C11.1881 3.64315 11.9802 2.94987 11.9802 2.05851C11.9802 1.16715 11.2871 0.374828 10.396 0.374828L2.27723 0.0777079C2.17822 0.0777079 2.17822 0.0777079 2.07921 0.0777079C1.48515 -0.0213322 0.990099 0.0777075 0.495049 0.473868C0.19802 0.770988 0 1.16715 0 1.66235C0 1.86043 -5.68015e-07 1.95947 0.0990093 2.05851V2.15755L0.396039 10.2788C0.396039 11.1702 1.18812 11.8635 2.07921 11.8635C2.9703 11.8635 3.66336 11.0712 3.66336 10.1798L3.46535 5.82203L12.7723 15.1318C2.67327 26.4224 2.67327 43.4573 12.7723 54.7478L3.46535 64.0576L3.66336 59.6998C3.66336 59.3037 3.56436 58.8085 3.26733 58.5114C2.9703 58.2142 2.47525 58.0162 2.07921 58.0162C1.18812 58.0162 0.495049 58.7094 0.396039 59.6008L0.0990093 67.7221V67.8211C0.0990093 67.9202 0 68.1182 0 68.3163C0 69.2077 0.792078 70 1.68317 70C1.88119 70 1.9802 70 2.07921 69.901H2.17822L10.297 69.6038C11.1881 69.6038 11.8812 68.8115 11.8812 67.9202C11.8812 67.524 11.6832 67.0288 11.3861 66.7317C11.0891 66.4346 10.5941 66.2365 10.198 66.3355L5.84158 66.5336L15.1485 57.2238C26.4356 67.3259 43.4653 67.3259 54.7525 57.2238L64.0594 66.5336L59.802 66.2365C59.4059 66.2365 58.9109 66.3355 58.6139 66.6326C57.9208 67.2269 57.9208 68.3163 58.5148 69.0096C58.8119 69.3067 59.2079 69.5048 59.703 69.5048L67.8218 69.8019H67.9208C68.0198 69.8019 68.2178 69.901 68.3168 69.901C69.2079 69.901 70 69.2077 70 68.2173C70 68.1182 70 67.9202 69.901 67.8211ZM35.0495 61.4826C20.396 61.4826 8.51485 49.5977 8.51485 34.9398C8.51485 20.2819 20.396 8.39707 35.0495 8.39707C49.703 8.39707 61.5842 20.2819 61.5842 34.9398C61.5842 49.5977 49.703 61.4826 35.0495 61.4826Z" fill="#222222"/>
<path d="M29.5052 24.9367C28.6142 24.5406 28.3171 24.0454 28.3171 23.3521C28.3171 22.6588 28.9112 22.2626 30.0003 22.1636C29.8023 21.7674 29.6043 21.2722 29.5052 20.8761C29.1092 19.6876 28.8122 18.4991 28.5151 17.2116C28.3171 16.5183 28.8122 15.825 29.5052 15.627C29.6043 15.627 29.8023 15.627 29.9013 15.627C33.3666 15.627 36.931 15.627 40.3963 15.627C41.0894 15.627 41.7825 16.1222 41.7825 16.9145C41.7825 17.0135 41.7825 17.2116 41.7825 17.3106C41.4854 18.8953 40.9904 20.3809 40.3963 21.8665C40.2973 21.9655 40.2973 22.0646 40.2973 22.1636C41.3864 22.2626 41.8815 22.6588 41.9805 23.3521C42.0795 24.0454 41.6835 24.5406 40.7924 24.9367C40.9904 25.0358 41.0894 25.1348 41.1884 25.1348C45.6439 27.5118 48.6141 31.9686 49.0102 36.9206C49.3072 39.6937 49.5052 42.4668 49.7033 45.2399C50.0993 48.1121 48.5151 50.8852 45.8419 52.0737C45.0498 52.4699 44.2577 52.5689 43.3666 52.5689C37.9211 52.5689 32.4755 52.5689 27.03 52.5689C23.5646 52.5689 20.7924 49.7958 20.6934 46.3294C20.6934 45.0419 20.8914 43.6553 20.9904 42.3678C21.0894 40.6841 21.2874 38.9014 21.4854 37.2177C21.8815 32.0676 24.8518 27.5118 29.4062 25.1348L29.5052 24.9367ZM33.6637 31.7705L33.3666 31.8695C31.3864 32.7609 30.4953 35.1378 31.3864 37.1187C31.3864 37.2177 31.4854 37.3167 31.5844 37.4158C32.2775 38.7033 33.5646 39.3966 34.9508 39.3966C35.6439 39.3966 36.3369 39.8918 36.3369 40.6841C36.3369 40.7831 36.3369 40.8822 36.3369 41.0803C36.2379 41.7735 35.5448 42.1697 34.9508 42.0707C34.2577 41.9716 33.7627 41.4764 33.7627 40.7831C33.7627 40.0899 33.1686 39.4956 32.4755 39.4956C32.4755 39.4956 32.4755 39.4956 32.3765 39.4956C31.6835 39.4956 31.0894 40.0899 31.0894 40.8822V40.9812C31.0894 42.4668 31.9805 43.8534 33.3666 44.4476C33.5646 44.5467 33.7627 44.7447 33.7627 44.9428C33.8617 45.6361 34.4557 46.2303 35.2478 46.1313C35.8419 46.0323 36.3369 45.5371 36.4359 44.9428C36.4359 44.6457 36.634 44.5467 36.832 44.4476C38.2181 43.8534 39.0102 42.5659 39.1092 41.0803C39.2082 38.9014 37.525 37.0196 35.3468 36.9206H35.2478C34.9508 36.9206 34.5547 36.8215 34.2577 36.6235C33.7627 36.2273 33.6637 35.633 33.8617 35.0388C34.1587 34.3455 34.9508 34.0484 35.6439 34.4446C36.1389 34.6426 36.4359 35.1378 36.4359 35.633C36.4359 36.3263 37.129 36.9206 37.8221 36.9206C38.5151 36.9206 39.1092 36.2273 39.1092 35.534C39.1092 34.0484 38.2181 32.6618 36.832 32.0676C36.634 31.9686 36.4359 31.7705 36.4359 31.5724C36.4359 30.8791 35.8419 30.3839 35.2478 30.3839C34.5547 30.3839 33.9607 30.7801 33.8617 31.4734C33.6637 31.4734 33.6637 31.5724 33.6637 31.7705Z" fill="#D5FFA2"/>
</svg>
