<svg width="24" height="30" viewBox="0 0 24 30" fill="none" xmlns="http://www.w3.org/2000/svg">
<path d="M12.0002 16.6665C10.4002 16.6665 9.14307 17.8887 9.14307 19.4443C9.14307 20.3331 9.60021 21.1109 10.2859 21.6665V23.8887C10.2859 24.7776 11.086 25.5554 12.0002 25.5554C12.9145 25.5554 13.7146 24.7776 13.7146 23.8887V21.6665C14.4003 21.1109 14.8574 20.3331 14.8574 19.4443C14.8573 17.8887 13.6002 16.6665 12.0002 16.6665ZM12.5716 20.9999V23.8888C12.5716 24.2221 12.343 24.4443 12.0002 24.4443C11.6574 24.4443 11.4288 24.2221 11.4288 23.8888V20.9999C10.7431 20.7776 10.2859 20.1109 10.2859 19.4443C10.2859 18.5554 11.086 17.7776 12.0002 17.7776C12.9145 17.7776 13.7146 18.5554 13.7146 19.4443C13.7144 20.2221 13.2573 20.7776 12.5716 20.9999Z" fill="black"/>
<path d="M20.5714 12.2222V8.3333C20.5714 3.77778 16.6857 0 12 0C7.31428 0 3.42857 3.77778 3.42857 8.33336V12.2223C1.48568 12.2223 0 13.6667 0 15.5556V26.6667C0 28.5556 1.48568 30 3.42857 30H20.5714C22.5143 30 24 28.5556 24 26.6667V15.5556C24 13.7778 22.5143 12.2222 20.5714 12.2222ZM4.57143 8.33336C4.57143 4.33336 7.88569 1.11117 12 1.11117C16.1143 1.11117 19.4285 4.33336 19.4285 8.33336V12.2223H18.2857V8.33336C18.2857 5.00003 15.4285 2.22222 11.9999 2.22222C8.57128 2.22222 5.71429 4.99997 5.71429 8.33336V12.2223H4.57143V8.33336ZM17.1429 8.33336V12.2223H6.85714V8.33336C6.85714 5.55561 9.14286 3.33339 12 3.33339C14.8571 3.33339 17.1429 5.55556 17.1429 8.33336ZM22.8571 26.6667C22.8571 27.8889 21.8285 28.8889 20.5714 28.8889H3.42857C2.1714 28.8889 1.14286 27.8889 1.14286 26.6667V15.5556C1.14286 14.3333 2.1714 13.3333 3.42857 13.3333H20.5714C21.8285 13.3333 22.8571 14.3333 22.8571 15.5556V26.6667Z" fill="black"/>
</svg>
