<svg width="24" height="24" viewBox="0 0 24 24" fill="none" xmlns="http://www.w3.org/2000/svg">
<path d="M5.48153 1.99239C5.39299 1.87849 5.28122 1.78473 5.15365 1.71734C5.02608 1.64995 4.88563 1.61047 4.74164 1.60154C4.59764 1.5926 4.45339 1.6144 4.31847 1.6655C4.18354 1.71659 4.06104 1.79581 3.95908 1.8979L2.40813 3.45036C1.68365 4.17634 1.41666 5.20382 1.73315 6.10529C3.04821 9.83587 5.18478 13.2232 7.98496 16.0171C10.7788 18.8173 14.1661 20.9538 17.8966 22.2689C18.7981 22.5854 19.8256 22.3184 20.5516 21.5939L22.1025 20.043C22.2046 19.941 22.2838 19.8185 22.3349 19.6836C22.386 19.5486 22.4078 19.4044 22.3989 19.2604C22.3899 19.1164 22.3505 18.9759 22.2831 18.8484C22.2157 18.7208 22.1219 18.609 22.008 18.5205L18.5476 15.8296C18.4258 15.7354 18.2843 15.67 18.1336 15.6383C17.983 15.6066 17.8271 15.6094 17.6777 15.6466L14.3928 16.467C13.9543 16.5759 13.4951 16.5697 13.0597 16.4491C12.6242 16.3285 12.2273 16.0975 11.9073 15.7786L8.22345 12.0931C7.90423 11.7733 7.67299 11.3765 7.55211 10.941C7.43124 10.5056 7.42481 10.0463 7.53347 9.60771L8.35544 6.32279C8.39258 6.17337 8.39541 6.01748 8.36372 5.86681C8.33203 5.71614 8.26664 5.57461 8.17245 5.45281L5.48153 1.99239ZM2.82662 0.766924C3.0891 0.504354 3.40444 0.300631 3.7517 0.16928C4.09895 0.0379297 4.47018 -0.0180419 4.84073 0.00508193C5.21127 0.0282058 5.57266 0.129896 5.90089 0.3034C6.22913 0.476904 6.51669 0.718252 6.7445 1.01142L9.43541 4.47033C9.9289 5.10482 10.1029 5.9313 9.9079 6.71128L9.08742 9.9962C9.0453 10.1664 9.04774 10.3445 9.0945 10.5134C9.14127 10.6824 9.23079 10.8364 9.35441 10.9607L13.0398 14.6461C13.1642 14.77 13.3185 14.8596 13.4877 14.9064C13.657 14.9532 13.8354 14.9555 14.0058 14.9131L17.2892 14.0926C17.6741 13.9969 18.0757 13.9897 18.4639 14.0716C18.852 14.1534 19.2165 14.3221 19.5301 14.5651L22.989 17.256C24.2324 18.2235 24.3464 20.061 23.2335 21.1724L21.6825 22.7234C20.5726 23.8334 18.9136 24.3208 17.3672 23.7764C13.4083 22.3853 9.81421 20.1191 6.85249 17.1465C3.88014 14.1852 1.61398 10.5916 0.222699 6.63328C-0.320284 5.08832 0.167201 3.42786 1.27717 2.31789L2.82662 0.766924Z" fill="black"/>
</svg>
