<svg width="14" height="14" viewBox="0 0 14 14" fill="none" xmlns="http://www.w3.org/2000/svg">
<path d="M3.49164 10.925C2.21619 10.0015 1 8.58524 1 6.99702C1 4.6493 3.18601 2.6825 5.59996 2.12169V0.822958C2.40486 1.40661 0 3.94914 0 6.99711C0 8.88066 0.918777 10.5697 2.3738 11.724C3.50002 12.6683 4.19997 11.4081 3.49164 10.925ZM11.5672 2.22472C10.85 1.6417 9.80003 2.58685 10.4884 3.05506C11.7756 3.97836 12.6001 5.40125 12.6001 6.99711C12.6001 9.34519 10.8138 11.3124 8.40004 11.8729V13.1719C11.5951 12.5876 14 10.0454 14 6.99702C14 5.08866 13.0567 3.37997 11.5672 2.22472ZM6.2185 3.21014L8.49702 1.98198C8.82852 1.80326 8.82922 1.51215 8.49882 1.33217L6.19923 0.0793735C5.86843 -0.100342 5.60146 0.0353212 5.60306 0.383334L5.61544 2.90375C5.61644 3.25159 5.88661 3.38887 6.2185 3.21014ZM7.80117 10.7909L5.50128 12.0437C5.17058 12.2237 5.17128 12.5147 5.50318 12.6935L7.7815 13.9218C8.11299 14.1001 8.38376 13.9633 8.38546 13.615L8.39744 11.0947C8.39864 10.7469 8.13127 10.6112 7.80117 10.7909Z" fill="black"/>
</svg>
