<svg width="60" height="60" viewBox="0 0 60 60" fill="none" xmlns="http://www.w3.org/2000/svg">
<path d="M60 30C60 37.9565 56.8393 45.5871 51.2132 51.2132C45.5871 56.8393 37.9565 60 30 60C22.0435 60 14.4129 56.8393 8.7868 51.2132C3.16071 45.5871 0 37.9565 0 30C0 22.0435 3.16071 14.4129 8.7868 8.7868C14.4129 3.16071 22.0435 0 30 0C37.9565 0 45.5871 3.16071 51.2132 8.7868C56.8393 14.4129 60 22.0435 60 30ZM31.0762 22.1475C28.1562 23.3625 22.3237 25.875 13.5788 29.685C12.1613 30.2475 11.4175 30.8 11.3475 31.3425C11.235 32.2537 12.3788 32.6138 13.935 33.105L14.5913 33.3113C16.1213 33.81 18.1838 34.3913 19.2525 34.4137C20.2275 34.4388 21.3125 34.0387 22.5075 33.2138C30.68 27.6988 34.8975 24.9112 35.16 24.8512C35.3475 24.8062 35.61 24.7537 35.7825 24.9113C35.955 25.0688 35.94 25.3612 35.9213 25.44C35.8088 25.9237 31.32 30.0938 28.9987 32.2537C28.275 32.9287 27.7612 33.405 27.6562 33.5138C27.4251 33.7501 27.1901 33.9827 26.9513 34.2113C25.5262 35.5838 24.4613 36.6113 27.0075 38.2913C28.2338 39.1013 29.2162 39.765 30.195 40.4325C31.26 41.16 32.325 41.8838 33.705 42.7913C34.055 43.0213 34.3925 43.255 34.7175 43.4925C35.9588 44.3775 37.08 45.1725 38.4562 45.045C39.2588 44.97 40.0875 44.22 40.5075 41.97C41.5013 36.6562 43.455 25.1475 43.905 20.4037C43.9333 20.0094 43.9169 19.6132 43.8562 19.2225C43.8199 18.9075 43.6675 18.6174 43.4288 18.4088C43.0871 18.1741 42.6806 18.0522 42.2663 18.06C41.1413 18.0788 39.405 18.6825 31.0762 22.1475Z" fill="black"/>
</svg>
