<svg width="161" height="156" viewBox="0 0 161 156" fill="none" xmlns="http://www.w3.org/2000/svg">
<g filter="url(#filter0_d_360_4764)">
<rect x="55.6667" y="45.5" width="58.9688" height="55" rx="19.5" stroke="black" shape-rendering="crispEdges"/>
</g>
<path d="M101.143 73C101.143 77.2435 99.4579 81.3131 96.4589 84.3137C93.4599 87.3143 89.3923 89 85.1511 89C80.9098 89 76.8423 87.3143 73.8433 84.3137C70.8443 81.3131 69.1594 77.2435 69.1594 73C69.1594 68.7565 70.8443 64.6869 73.8433 61.6863C76.8423 58.6857 80.9098 57 85.1511 57C89.3923 57 93.4599 58.6857 96.4589 61.6863C99.4579 64.6869 101.143 68.7565 101.143 73ZM85.7248 68.812C84.1683 69.46 81.0592 70.8 76.3977 72.832C75.642 73.132 75.2456 73.4267 75.2083 73.716C75.1483 74.202 75.758 74.394 76.5876 74.656L76.9374 74.766C77.7529 75.032 78.8524 75.342 79.4221 75.354C79.9418 75.3673 80.5202 75.154 81.1572 74.714C85.5136 71.7727 87.7617 70.286 87.9017 70.254C88.0016 70.23 88.1415 70.202 88.2335 70.286C88.3254 70.37 88.3174 70.526 88.3074 70.568C88.2475 70.826 85.8547 73.05 84.6174 74.202C84.2316 74.562 83.9577 74.816 83.9017 74.874C83.7785 75.0001 83.6532 75.1241 83.5259 75.246C82.7663 75.978 82.1986 76.526 83.5559 77.422C84.2096 77.854 84.7333 78.208 85.255 78.564C85.8227 78.952 86.3904 79.338 87.1261 79.822C87.3126 79.9447 87.4925 80.0693 87.6658 80.196C88.3274 80.668 88.9251 81.092 89.6587 81.024C90.0865 80.984 90.5283 80.584 90.7522 79.384C91.2819 76.55 92.3234 70.412 92.5632 67.882C92.5783 67.6717 92.5696 67.4604 92.5372 67.252C92.5179 67.084 92.4366 66.9293 92.3094 66.818C92.1272 66.6929 91.9106 66.6278 91.6897 66.632C91.09 66.642 90.1645 66.964 85.7248 68.812Z" fill="black"/>
<defs>
<filter id="filter0_d_360_4764" x="0.166748" y="0" width="159.969" height="156" filterUnits="userSpaceOnUse" color-interpolation-filters="sRGB">
<feFlood flood-opacity="0" result="BackgroundImageFix"/>
<feColorMatrix in="SourceAlpha" type="matrix" values="0 0 0 0 0 0 0 0 0 0 0 0 0 0 0 0 0 0 127 0" result="hardAlpha"/>
<feOffset dx="-5" dy="5"/>
<feGaussianBlur stdDeviation="25"/>
<feComposite in2="hardAlpha" operator="out"/>
<feColorMatrix type="matrix" values="0 0 0 0 0 0 0 0 0 0 0 0 0 0 0 0 0 0 0.1 0"/>
<feBlend mode="normal" in2="BackgroundImageFix" result="effect1_dropShadow_360_4764"/>
<feBlend mode="normal" in="SourceGraphic" in2="effect1_dropShadow_360_4764" result="shape"/>
</filter>
</defs>
</svg>
