<svg width="60" height="36" viewBox="0 0 60 36" fill="none" xmlns="http://www.w3.org/2000/svg">
<path fill-rule="evenodd" clip-rule="evenodd" d="M58.5876 2.5C59.0326 1.09 58.5876 0.0649996 56.6188 0.0649996H50.0726C48.4213 0.0649996 47.6588 0.9625 47.2138 1.9225C47.2138 1.9225 43.8463 10.1225 39.1438 15.4387C37.6188 16.9762 36.92 17.4888 36.0938 17.4888C35.6488 17.4888 35.0763 16.9762 35.0763 15.5675V2.43375C35.0763 0.76875 34.5688 0 33.17 0H22.875C21.8575 0 21.2225 0.76875 21.2225 1.5375C21.2225 3.13875 23.5738 3.52375 23.8275 8.0075V17.75C23.8275 19.8638 23.4525 20.25 22.62 20.25C20.3963 20.25 14.995 11.9862 11.755 2.57C11.125 0.705 10.485 0 8.83251 0H2.22375C0.317501 0 0 0.89625 0 1.8575C0 3.5875 2.22375 12.2988 10.3575 23.8288C15.7588 31.7038 23.4475 35.9362 30.3738 35.9362C34.5688 35.9362 35.0763 34.975 35.0763 33.3737V27.4162C35.0763 25.495 35.4575 25.175 36.7925 25.175C37.745 25.175 39.4613 25.6863 43.3376 29.4663C47.7851 33.95 48.5476 36 51.0263 36H57.5713C59.4776 36 60.3676 35.0387 59.8588 33.1813C59.2876 31.3238 57.1263 28.6338 54.3301 25.4313C52.8051 23.6388 50.5176 21.6525 49.8188 20.6912C48.8663 19.41 49.1201 18.8975 49.8188 17.745C49.7551 17.745 57.7626 6.3425 58.5876 2.495" fill="black"/>
</svg>
