<svg width="60" height="44" viewBox="0 0 60 44" fill="none" xmlns="http://www.w3.org/2000/svg">
<path d="M59.6145 9.71526C59.6145 4.55915 55.7351 0.411343 50.9415 0.411343C44.4485 0.11458 37.8266 0 31.0593 0H28.9497C22.1988 0 15.5652 0.11458 9.07217 0.412489C4.29032 0.412489 0.410921 4.58321 0.410921 9.73932C0.117915 13.8172 -0.00631942 17.8963 0.000712716 21.9753C-0.0110075 26.0544 0.121822 30.1373 0.3992 34.224C0.3992 39.3801 4.2786 43.5623 9.06045 43.5623C15.8816 43.8716 22.8786 44.0091 29.9928 43.9977C37.1187 44.0206 44.0961 43.8754 50.9251 43.5623C55.7187 43.5623 59.5981 39.3801 59.5981 34.224C59.8794 30.1335 60.0083 26.0544 59.9966 21.9639C60.0231 17.8848 59.8958 13.802 59.6145 9.71526ZM24.2616 33.2157V10.7006L41.2559 21.9524L24.2616 33.2157Z" fill="black"/>
</svg>
