<svg width="30" height="38" viewBox="0 0 30 38" fill="none" xmlns="http://www.w3.org/2000/svg">
<path fill-rule="evenodd" clip-rule="evenodd" d="M7.41089 5.71324C7.40244 5.71979 7.39396 5.72701 7.38616 5.73421C6.32925 6.63639 5.40894 7.69644 4.66227 8.87771C4.65707 8.88623 4.65187 8.89411 4.64667 8.90263C3.30033 11.0424 2.52051 13.5786 2.52051 16.2975C2.52051 23.9362 8.67724 30.1381 16.2603 30.1381C23.8434 30.1381 30.0001 23.9362 30.0001 16.2975C30.0001 8.65889 23.8434 2.45703 16.2603 2.45703C12.8906 2.45703 9.80178 3.68155 7.41089 5.71324ZM24.3891 6.8159L24.7026 8.38831C24.711 8.4309 24.7156 8.47414 24.7156 8.51738V11.7932C24.7156 11.8633 24.7045 11.9335 24.6824 12.0003L24.0652 13.8649V15.7243C24.0652 16.0859 23.7738 16.3794 23.4148 16.3794H22.7644V16.88L23.3458 18.0521C23.5065 18.3751 23.3764 18.7695 23.0551 18.9307C22.7338 19.0925 22.3429 18.9615 22.1822 18.6378L21.5318 17.3275C21.487 17.2364 21.4636 17.1362 21.4636 17.0346V15.9425L20.0327 14.0208L18.2115 15.3967V16.3794C18.2115 16.6553 18.0398 16.9016 17.7822 16.9953C17.5247 17.0897 17.2366 17.011 17.0616 16.7988L14.0047 13.1036H13.3211L11.444 15.4661L11.9683 15.6974C12.138 15.7721 12.2688 15.9169 12.326 16.0951C12.3832 16.2727 12.3624 16.4672 12.2688 16.6284L10.4515 19.7556L11.0375 22.1168C11.0525 22.1771 11.059 22.2386 11.0564 22.3002L10.9367 25.5761C10.927 25.8473 10.7514 26.0845 10.4964 26.1723C10.2408 26.2594 9.95851 26.1795 9.78615 25.9705L6.00405 21.3843C5.97218 21.3457 5.94488 21.3037 5.92211 21.2585L4.69871 18.7938L3.9813 18.3116C4.93869 24.271 10.0756 28.8277 16.2603 28.8277C18.3455 28.8277 20.311 28.3101 22.0379 27.3949L21.4967 25.7589C21.4004 25.468 21.5182 25.1483 21.779 24.9904L25.031 23.0249C25.1325 22.9633 25.2483 22.9312 25.366 22.9312H26.6668C26.7136 22.9312 26.7598 22.9364 26.8034 22.9456C27.2664 22.2026 27.6541 21.4072 27.9559 20.5706L27.5077 20.1185C27.2541 19.863 27.2541 19.4476 27.5077 19.1921C27.7451 18.953 28.1204 18.9372 28.376 19.1456C28.5874 18.2296 28.6993 17.277 28.6993 16.2975C28.6993 13.7653 27.952 11.4073 26.6668 9.43461V11.1381C26.6668 11.4997 26.3754 11.7932 26.0164 11.7932C25.6574 11.7932 25.366 11.4997 25.366 11.1381V7.8622C25.366 7.83141 25.3679 7.80127 25.3718 7.77113C25.0622 7.43503 24.7338 7.11597 24.3891 6.8159ZM25.8772 24.2415H25.5461L22.8957 25.8434L23.1819 26.7076C24.1959 26.0223 25.1038 25.1902 25.8772 24.2415ZM22.8313 5.65885C20.9243 4.46054 18.672 3.76738 16.2603 3.76738C13.353 3.76738 10.6772 4.77437 8.55887 6.46013L9.08176 8.34049C9.14485 8.56849 9.08177 8.81352 8.91527 8.98058L7.61446 10.2909C7.44535 10.4613 7.19756 10.5242 6.96862 10.4554L5.49806 10.0138C4.43205 11.862 3.82132 14.0084 3.82132 16.2975C3.82132 16.4096 3.82259 16.521 3.82584 16.6323L5.5644 17.7999C5.65806 17.8628 5.7348 17.9499 5.78488 18.0521L7.0525 20.6053L9.69965 23.8143L9.75301 22.3448L9.12535 19.8145C9.08372 19.6481 9.10909 19.4719 9.19494 19.3244L10.7767 16.6022L10.1478 16.3257L10.127 16.3159C10.0268 16.2681 9.94485 16.1973 9.88306 16.1128C9.86094 16.0833 9.84145 16.0512 9.82454 16.0171L7.87333 12.0861C7.71333 11.7631 7.84341 11.3687 8.16471 11.2075C8.48536 11.0457 8.8769 11.1767 9.0369 11.5004L10.5335 14.5155L12.5003 12.0389C12.6239 11.8837 12.8106 11.7932 13.0083 11.7932H14.3091C14.5023 11.7932 14.685 11.8797 14.8086 12.0291L17.0213 14.7035C17.0616 14.6432 17.1117 14.5895 17.1709 14.545L19.7725 12.5795C20.06 12.3626 20.4678 12.4209 20.6831 12.7105L22.4392 15.0691H22.7644V13.7588C22.7644 13.6887 22.7754 13.6185 22.7975 13.5517L23.4148 11.6871V8.58224L22.8313 5.65885ZM22.4736 22.2072C22.5608 22.2511 22.6596 22.276 22.7644 22.276H26.0164C26.3754 22.276 26.6668 21.9825 26.6668 21.6208C26.6668 21.2592 26.3754 20.9657 26.0164 20.9657H23.0896L21.3335 18.607C21.1182 18.3174 20.7097 18.2591 20.4229 18.476C20.1354 18.6929 20.0775 19.1037 20.2928 19.3932L22.244 22.0139C22.3064 22.0984 22.3858 22.1626 22.4736 22.2072ZM24.7839 18.0521L24.1335 19.3625C24.0326 19.5656 24.0437 19.8067 24.1621 19.9999C24.2804 20.1932 24.4899 20.3105 24.7156 20.3105H26.0164C26.3754 20.3105 26.6668 20.017 26.6668 19.6553C26.6668 19.2937 26.3754 19.0001 26.0164 19.0001H25.7679L25.9474 18.6378C26.1081 18.3148 25.978 17.9204 25.6567 17.7592C25.3354 17.5974 24.9445 17.7285 24.7839 18.0521ZM24.7839 14.7068L25.7595 16.6723C25.9201 16.996 26.311 17.127 26.6323 16.9652C26.9536 16.804 27.0837 16.4096 26.923 16.0866L25.9474 14.1211C25.7874 13.7974 25.3959 13.6664 25.0752 13.8282C24.7539 13.9894 24.6239 14.3838 24.7839 14.7068ZM7.47723 7.42849C7.03105 7.87663 6.61804 8.35883 6.24406 8.87052L6.96862 9.08803L7.72633 8.32475L7.47723 7.42849Z" fill="white"/>
<path fill-rule="evenodd" clip-rule="evenodd" d="M15.6097 32.7455V34.0919C13.3892 34.2505 11.3873 35.2116 9.89005 36.6897H9.10567C8.74665 36.6897 8.45527 36.9832 8.45527 37.3448C8.45527 37.7065 8.74665 38 9.10567 38H23.4146C23.7736 38 24.065 37.7065 24.065 37.3448C24.065 36.9832 23.7736 36.6897 23.4146 36.6897H22.6302C21.133 35.2116 19.131 34.2505 16.9105 34.0919V32.7455C21.1388 32.5778 24.9547 30.78 27.7554 27.9588C28.0097 27.7033 28.0097 27.2879 27.7554 27.0324C27.5017 26.7769 27.0893 26.7769 26.8357 27.0324C25.609 28.2681 24.171 29.2901 22.5807 30.039L21.8419 28.2425C21.7046 27.9084 21.3242 27.7492 20.9925 27.8874C20.6608 28.0263 20.5027 28.4096 20.6406 28.7437L21.3794 30.5415C19.782 31.1279 18.0578 31.4483 16.2601 31.4483C8.00388 31.4483 1.30081 24.6961 1.30081 16.3793C1.30081 10.3373 4.83835 5.12083 9.93948 2.71962L10.6205 4.37655C10.7577 4.71068 11.1388 4.8699 11.4705 4.73101C11.8022 4.59276 11.9596 4.20949 11.8224 3.87535L11.1408 2.21711C12.7375 1.63073 14.4618 1.31034 16.2601 1.31034C16.6191 1.31034 16.9105 1.01683 16.9105 0.655172C16.9105 0.293517 16.6191 0 16.2601 0C7.28584 0 0 7.33924 0 16.3793C0 25.1999 6.93592 32.4009 15.6097 32.7455ZM20.5729 36.6897C19.3372 35.8622 17.8543 35.3793 16.2601 35.3793C14.666 35.3793 13.1824 35.8622 11.9466 36.6897H20.5729Z" fill="white"/>
</svg>
