<svg width="32" height="30" viewBox="0 0 32 30" fill="none" xmlns="http://www.w3.org/2000/svg">
<path d="M4.21387 12.0376V27.9229C4.21387 28.2085 4.32675 28.4825 4.52768 28.6844C4.72861 28.8864 5.00114 28.9999 5.2853 28.9999H11.7139V19.8456C11.7139 19.4172 11.8832 19.0063 12.1846 18.7033C12.486 18.4004 12.8948 18.2302 13.321 18.2302H18.6782C19.1044 18.2302 19.5132 18.4004 19.8146 18.7033C20.116 19.0063 20.2853 19.4172 20.2853 19.8456V28.9999H26.7139C26.998 28.9999 27.2705 28.8864 27.4715 28.6844C27.6724 28.4825 27.7853 28.2085 27.7853 27.9229V12.0376" stroke="white" stroke-width="2" stroke-linecap="round" stroke-linejoin="round"/>
<path d="M31 14.9994L16.7292 1.26807C16.3944 0.912667 15.6116 0.908628 15.2708 1.26807L1 14.9994M25.6429 9.81652V2.07579H22.4286V6.72023" stroke="white" stroke-width="2" stroke-linecap="round" stroke-linejoin="round"/>
</svg>
