<svg width="32" height="37" viewBox="0 0 32 37" fill="none" xmlns="http://www.w3.org/2000/svg">
<path d="M16 6.6C17.6569 6.6 19 5.3464 19 3.8C19 2.2536 17.6569 1 16 1C14.3431 1 13 2.2536 13 3.8C13 5.3464 14.3431 6.6 16 6.6Z" stroke="white" stroke-width="2" stroke-linejoin="round"/>
<path d="M11.9578 19.7075C12.1844 18.3795 12.2859 17.0956 11.9188 16.208C11.6063 15.4447 10.9267 15.0174 10.1065 14.7262L2.87847 12.5246C1.94109 12.2304 1.06541 11.7377 1.0037 10.7641C0.925585 9.514 2.09732 8.70511 3.26905 8.99925C3.26905 8.99925 10.1432 11.2892 16.0019 11.2892C21.8605 11.2892 28.6565 9.00954 28.6565 9.00954C30.0626 8.64186 31 9.67137 31 10.759C31 11.8039 30.1407 12.1716 29.1252 12.5194L22.2511 14.8659C21.6262 15.0865 20.6107 15.5278 20.2201 16.2028C19.7514 16.9933 19.8295 18.3743 20.056 19.7024L20.5169 21.8813L23.4392 33.9338C23.6579 34.9008 22.9471 35.8046 21.9238 35.9737C20.9005 36.1428 20.0639 35.4854 19.7608 34.55L16.8267 26.025C16.6856 25.6162 16.5606 25.2026 16.4518 24.7845L16.0019 23.0578L15.5878 24.6499C15.4566 25.1573 15.3056 25.6593 15.1348 26.1559L12.2523 34.5427C11.9399 35.4876 11.1196 36.1421 10.0963 35.9737C9.07302 35.8053 8.34655 34.8273 8.5762 33.9338L11.4969 21.8864L11.9578 19.7075Z" stroke="white" stroke-width="2" stroke-linejoin="round"/>
</svg>
