<svg width="30" height="28" viewBox="0 0 30 28" fill="none" xmlns="http://www.w3.org/2000/svg">
<path d="M25.1055 9.22016L30 6.17677L28.9197 5.52323L19.9863 0.0742207L15.0645 3.08066L10.0077 0L0 6.09382L1.0644 6.76516L4.9668 9.19228L4.92 9.21814H4.9161V9.22251L0.0861 12.1678L4.9161 15.0735V22.3787L14.9982 28L25.0821 22.3787V15.0953L29.9511 12.1678L25.1055 9.22016ZM19.9863 1.79507L27.1971 6.18785L23.7069 8.36108L16.4139 3.97735L19.9863 1.79507ZM2.7969 6.10893L10.0077 1.71614L13.5819 3.89373L6.2853 8.28215L2.7969 6.10893ZM2.9181 12.1611L6.4905 9.9768L13.7736 14.3867L10.2111 16.5425L2.9181 12.1611ZM6.2676 21.4404V15.8889L10.2228 18.2677L14.3244 15.7183V25.9312L6.2676 21.4404ZM23.7342 21.4404L15.6777 25.9292V15.7009L19.8027 18.2677L23.7342 15.9064V21.4404ZM27.1113 12.1567L19.8165 16.5428L16.3146 14.3871L23.5332 9.97714L27.1113 12.1567Z" fill="white"/>
</svg>
